<svg xmlns="http://www.w3.org/2000/svg" height="800" width="1200" viewBox="-150 -109.76525 1300 658.5915"><defs><clipPath clipPathUnits="userSpaceOnUse" id="a"><path d="M565.879 2409.88L857.926 3096l741.704 90.8 449.75-595.26-292-686.13-741.71-90.79z"/></clipPath><clipPath clipPathUnits="userSpaceOnUse" id="b"><path d="M1742.81 1924.7l-717.7-87.81-435.184 575.98 282.566 663.77 717.688 87.88 435.16-575.98z"/></clipPath></defs><path d="M342.306 103.91l-3.172 18.683h25.545l-14.756 86.971h17.66l14.755-86.971h25.546l3.172-18.683h-68.75m73.199 0l-17.933 105.654h64.163l3.168-18.69h-46.85l4.645-27.368h41.198l3.172-18.691h-41.201l3.77-22.222h44.852l3.172-18.683h-62.156m72.46 0L470.04 209.564h59.68l3.254-19.13h-42.032l14.687-86.524h-17.664m67.197 0l-17.93 105.654h17.654l6.075-35.76L571 163.213l18.268 46.352h22.718l-25.91-62.393 41.845-43.261h-22.85l-39.545 42.967 7.291-42.967h-17.656"/><path d="M666.812 119.795c14.606 0 20.634 14.419 16.832 36.796-4.117 24.285-15.59 37.08-29.252 37.08-14.481 0-20.51-14.418-16.685-36.933 4.168-24.572 16.033-36.943 29.105-36.943zm3.286-18.683c-18.592 0-42.862 13.236-50.053 55.626-7.039 41.49 11.758 55.624 31.184 55.624 18.715 0 42.83-13.096 50.07-55.771 7.177-42.243-12.834-55.479-31.201-55.479" fill-rule="evenodd"/><path d="M717.373 103.91l-17.932 105.654h16.49l14.955-88.146h.238l.463 88.146h17.305l30.761-88.293.26-.138-15.013 88.431h16.482l17.924-105.654h-25.541l-29.203 83.286h-.237l-1.173-83.286h-25.779m122.603-2.798c-27.433 0-36.014 20.746-38.037 32.67-3.897 22.956 8.49 27.668 21.595 30.89l8.735 2.667c8.497 2.642 14.367 4.844 12.942 13.234-1.973 11.63-12.893 13.546-19.84 13.546-9.77 0-16.793-4.42-15.112-17.075h-16.954c-3.817 22.523 7.55 35.318 29.797 35.318 16.832 0 35.238-9.272 39.535-34.577 3.491-20.607-8.398-25.468-17.884-28.559l-18.96-6.18c-3.359-1.02-8.498-2.643-7.045-11.181 1.598-9.42 10.129-12.51 16.839-12.51 15.421 0 14.932 11.188 14.606 15.894h16.954c2.08-12.942-1.28-34.137-27.171-34.137m42.551 2.798l-17.932 105.654h64.17l3.166-18.69H885.08l4.647-27.368h41.2l3.172-18.691h-41.206l3.773-22.222h44.854l3.173-18.683h-62.166m72.471 0L937.06 209.564h59.694l3.246-19.13h-42.03l14.677-86.524h-17.65"/><path d="M69.32 144.284l35.804-84.117 90.932-11.132 55.138 72.978-35.798 84.118-90.933 11.131-55.144-72.978" fill="#fff"/><g clip-path="url(#a)" fill="#fff" transform="matrix(.1226 0 0 -.1226 -.057 439.732)"><path d="M1806.43 1802.84c-151.89-485.84-403-800.74-647.65-770.73-294.139 35.98-493.526 639.96-388.491 1349.57 105.262 710.93 417.061 1224.98 730.501 1204.49 205.09-13.37 364.64-290.62 409.94-664.84-56.74 211.72-142.35 430.96-288.39 450.19-201.31 26.48-465.09-379.62-573.64-939.82-100.809-520.37-20.72-1038.81 214.71-1069.47 152.1-19.76 411.81 139.15 543.02 440.61"/><path d="M1941.32 1848.48c274.06 123.58 552.07 267.06 525.79 438.67-39.9 260.28-644.02 358-1173.4 305.92-233.5-22.95-1069.097-191.31-1055.96-543.25 3.828-102.44 277.879-237.47 507.23-303.72C387.977 1785.95 27.55 1963.29 2.281 2177c-38.117 323.27 528.016 655.33 1273.349 734.61 739.73 78.56 1379.5-113.74 1423.39-436.28 33.03-242.65-282.96-476.6-757.7-626.85"/></g><path d="M235.7 214.238l-87.804 10.756-53.24-70.46 34.565-81.222 87.814-10.74 53.233 70.459-34.568 81.207" fill="#656263"/><path d="M221.409 218.706c-18.622 59.564-49.407 98.177-79.401 94.49-36.061-4.41-60.506-78.457-47.629-165.445C107.284 60.582 145.511-2.439 183.938.073c25.144 1.639 44.704 35.63 50.258 81.508-6.956-25.957-17.452-52.835-35.356-55.193-24.68-3.246-57.02 46.541-70.328 115.221-12.359 63.805-2.54 127.357 26.323 131.116 18.648 2.422 50.488-17.06 66.574-54.019" fill="#b0aeaf"/><path d="M237.946 213.111c33.6-15.15 67.683-32.741 64.461-53.78-4.891-31.91-78.956-43.89-143.857-37.506-28.627 2.814-131.07 23.455-129.46 66.61.47 12.551 34.069 29.105 62.187 37.228C47.509 220.777 3.32 199.035.223 172.835c-4.673-39.633 64.734-80.343 156.11-90.062 90.69-9.632 169.125 13.944 174.506 53.487 4.05 29.749-34.69 58.43-92.893 76.851" fill="#b0aeaf"/><path d="M213.61 203.767l-87.99 10.765-53.353-70.614L106.91 62.54l87.988-10.774 53.35 70.615-34.638 81.386" fill="#ed1c24"/><g clip-path="url(#b)" fill="#fff" transform="matrix(.1226 0 0 -.1226 -.057 439.732)"><path d="M1806.43 1802.84c-151.89-485.84-403-800.74-647.65-770.73-294.139 35.98-493.526 639.96-388.491 1349.57 105.262 710.93 417.061 1224.98 730.501 1204.49 205.09-13.37 364.64-290.62 409.94-664.84-56.74 211.72-142.35 430.96-288.39 450.19-201.31 26.48-465.09-379.62-573.64-939.82-100.809-520.37-20.72-1038.81 214.71-1069.47 152.1-19.76 411.81 139.15 543.02 440.61"/><path d="M1941.32 1848.48c274.06 123.58 552.07 267.06 525.79 438.67-39.9 260.28-644.02 358-1173.4 305.92-233.5-22.95-1069.097-191.31-1055.96-543.25 3.828-102.44 277.879-237.47 507.23-303.72C387.977 1785.95 27.55 1963.29 2.281 2177c-38.117 323.27 528.016 655.33 1273.349 734.61 739.73 78.56 1379.5-113.74 1423.39-436.28 33.03-242.65-282.96-476.6-757.7-626.85"/></g><path d="M452.48 422.336a29.807 29.807 0 003.591-14.181c0-17.084-14.372-30.916-32.097-30.916-4.14 0-8.086.759-11.714 2.129a48.008 48.008 0 002.014 9.215 21.428 21.428 0 017.836-1.468c11.41 0 20.657 8.807 20.657 19.686 0 4.167-1.362 8.04-3.682 11.205 4.138 2.022 8.709 3.466 13.394 4.33" fill="#fff"/><path d="M422.11 387.115c-2.772 0-5.419.52-7.836 1.468 3.254 10.07 9.79 19.507 18.951 25.981a41.106 41.106 0 005.86 3.45c2.32-3.173 3.682-7.046 3.682-11.213 0-10.88-9.248-19.686-20.657-19.686" fill="#ed1c24"/><path d="M469.474 397.84c7.576-5.824 26.72-18.376 23.756-23.463-2.395-4.12-12.857.849-24.673 7.283-9.276 5.055-7.274-1.054-1.374-9.983 5.194-7.854 13.002-18.463 8.66-21.326-5.076-3.343-20.619 15.145-24.253 18.79-3.632 3.653-6.963 5.618-5.13-4.543 2.434-13.504 2.916-20.557-.105-21.406-4.254-1.199-6.919 4.102-13.268 18.943-4.564 10.635-8.521 12.527-9.024 2.97-.631-17.159-5.003-13.22-6.683-10.585-4.6 7.256-6.156 16.032-5.125 24.839a33.38 33.38 0 0111.719-2.12c17.729 0 32.094 13.832 32.094 30.916 0 5.105-1.301 9.94-3.589 14.181 10.109 1.86 20.776.97 28.804-3.026 1.34-.669 4.577-2.65 2.56-5.406-4.037-5.504-11.31-2.61-19.09-4.86-6.834-1.982-.75-7.022 4.72-11.205" fill="#ed1c24"/><path d="M439.085 418.013c-3.727 5.122-9.936 8.481-16.975 8.481-11.409 0-20.66-8.816-20.66-19.693 0-8.23 5.3-15.266 12.824-18.218a48.394 48.394 0 01-2.02-9.215c-11.926 4.517-20.378 15.69-20.378 28.787 0 17.068 14.373 30.906 32.098 30.906 12.415 0 23.164-6.793 28.505-16.718-4.68-.87-9.256-2.315-13.394-4.33" fill="#6d6f71"/><path d="M64.39 394.11c0-1.214-1.061-2.25-2.312-2.25H41.083c-1.257 0-2.32 1.036-2.32 2.25 0 1.217 1.039 2.212 2.32 2.212h8.052v24.138c0 1.304 1.094 2.366 2.443 2.366 1.35 0 2.447-1.062 2.447-2.366v-24.138h8.053c1.28 0 2.312-.995 2.312-2.211m7.008 4.959c-6.409 0-11.433 5.269-11.433 11.987v.082c0 6.833 5.105 11.988 11.874 11.988 3.588 0 6.34-1.078 8.918-3.473.465-.4.742-.955.742-1.551 0-1.141-.987-2.08-2.194-2.08-.498 0-.963.18-1.403.53-1.806 1.615-3.702 2.367-5.981 2.367-3.682 0-6.374-2.302-7.042-5.947h15.335c1.252 0 2.271-.986 2.271-2.21 0-5.798-3.804-11.693-11.087-11.693zm-.085 4.126c3.96 0 5.83 2.968 6.315 5.985H64.882c.653-3.563 3.205-5.985 6.431-5.985m16.546-12.794c-1.3 0-2.36 1.044-2.36 2.332V420.5c0 1.306 1.06 2.326 2.405 2.326 1.345 0 2.361-1.004 2.361-2.326v-27.766c0-1.288-1.08-2.332-2.406-2.332m18.937 19.417l6.837-6.525c.448-.44.865-.954.865-1.762 0-1.23-.984-2.202-2.23-2.202-.71 0-1.29.27-1.828.857l-10.845 10.716v-18.17c0-1.287-1.077-2.331-2.406-2.331-1.3 0-2.362 1.044-2.362 2.332V420.5c0 1.306 1.057 2.326 2.407 2.326 1.344 0 2.36-1.004 2.36-2.326v-3.866l3.841-3.684 7.23 8.856c.567.717 1.158 1.02 1.99 1.02 1.324 0 2.315-.947 2.315-2.202 0-.564-.163-1.004-.583-1.525l-7.591-9.28m20.937-10.749c-6.948 0-12.388 5.293-12.388 12.037v.072c0 6.697 5.407 11.948 12.298 11.948 6.969 0 12.433-5.276 12.433-12.02v-.099c0-6.679-5.424-11.938-12.343-11.938zm-7.535 11.938c0-4.38 3.2-7.682 7.445-7.682 4.253 0 7.58 3.417 7.58 7.78v.073c0 4.364-3.225 7.658-7.49 7.658-4.224 0-7.535-3.4-7.535-7.73v-.099m49.007-11.938c-3.233 0-5.79 1.223-7.788 3.726-1.6-2.406-4.127-3.726-7.25-3.726-3.103 0-5.096 1.28-6.495 2.763v-.177c0-1.298-1.052-2.326-2.402-2.326-1.3 0-2.361 1.044-2.361 2.326V420.5c0 1.306 1.057 2.326 2.405 2.326 1.343 0 2.358-1.004 2.358-2.326v-10.95c0-3.565 2.32-6.133 5.505-6.133 3.196 0 5.023 2.088 5.023 5.75V420.5c0 1.306 1.044 2.326 2.364 2.326 1.35 0 2.402-1.02 2.402-2.326v-11.08c0-3.581 2.178-6.003 5.42-6.003 3.265 0 5.064 2.079 5.064 5.848V420.5c0 1.306 1.064 2.326 2.405 2.326 1.327 0 2.365-1.02 2.365-2.326v-12.004c0-5.805-3.454-9.426-9.015-9.426m26.242-7.113c-1.199 0-2.209 1.004-2.209 2.187v26.65c0 1.183 1.01 2.187 2.21 2.187 1.24 0 2.252-.98 2.252-2.187v-26.65c0-1.208-1.012-2.187-2.253-2.187m19.433 7.487c-2.98 0-5.394 1.085-7.205 3.222v-.833c0-1.19-.97-2.128-2.2-2.128-1.196 0-2.162.954-2.162 2.128v19.01c0 1.2.966 2.138 2.197 2.138s2.165-.923 2.165-2.138v-11.09c0-3.76 2.57-6.362 6.252-6.362 3.645 0 5.729 2.219 5.729 6.109v11.343c0 1.2.967 2.138 2.202 2.138 1.21 0 2.161-.938 2.161-2.138v-12.142c0-5.627-3.585-9.257-9.138-9.257m33.785-8.757c-1.23 0-2.16.913-2.16 2.137v10.322c-2.165-2.453-4.893-3.702-8.122-3.702-5.468 0-11.267 4.16-11.267 11.883v.09c0 7.673 5.8 11.824 11.267 11.824 3.232 0 5.907-1.28 8.122-3.881v1.483c0 1.2.97 2.138 2.206 2.138 1.211 0 2.157-.938 2.157-2.138v-28.02c0-1.19-.967-2.136-2.203-2.136zm-2.03 20.59v.075c0 4.932-3.964 7.983-7.645 7.983-4.232 0-7.421-3.433-7.421-7.983v-.074c0-4.665 3.05-7.927 7.42-7.927 3.756 0 7.646 2.96 7.646 7.927m19.866-11.834c-6.883 0-12.28 5.236-12.28 11.908v.096c0 6.63 5.357 11.833 12.19 11.833 6.906 0 12.314-5.235 12.314-11.93v-.073c0-6.639-5.37-11.834-12.224-11.834zm-7.825 11.834c0-4.542 3.323-7.976 7.735-7.976 4.408 0 7.862 3.54 7.862 8.05v.096c0 4.52-3.34 7.936-7.772 7.936-4.392 0-7.825-3.531-7.825-8.032v-.074m34.932-11.834c-2.99 0-5.407 1.085-7.21 3.222v-.833c0-1.19-.969-2.128-2.206-2.128-1.186 0-2.16.954-2.16 2.128v19.01c0 1.2.974 2.138 2.205 2.138 1.236 0 2.162-.923 2.162-2.138v-11.09c0-3.76 2.573-6.362 6.247-6.362 3.649 0 5.732 2.219 5.732 6.109v11.343c0 1.2.967 2.138 2.207 2.138 1.21 0 2.16-.938 2.16-2.138v-12.142c0-5.627-3.584-9.257-9.137-9.257m23.449.009c-6.34 0-11.307 5.211-11.307 11.874v.09c0 6.75 5.052 11.864 11.748 11.864 3.567 0 6.29-1.06 8.848-3.441.432-.375.672-.873.672-1.403 0-1.05-.885-1.89-1.977-1.89-.456 0-.872.154-1.284.48-1.86 1.664-3.816 2.438-6.174 2.438-3.848 0-6.748-2.561-7.36-6.434h15.727c1.149 0 2.071-.905 2.071-2.007 0-5.756-3.759-11.57-10.964-11.57zm-6.834 10.193c.596-3.842 3.312-6.475 6.753-6.475 4.24 0 6.185 3.246 6.634 6.475h-13.387m29.869-.317l-.083-.025c-2.756-.815-5.353-1.591-5.353-3.27v-.09c0-1.598 1.545-2.69 3.853-2.69 1.757 0 3.706.57 5.639 1.639.192.09.541.227.987.227 1.097 0 1.986-.84 1.986-1.875 0-.725-.4-1.394-1.07-1.778-2.352-1.232-5.054-1.941-7.46-1.941-4.813 0-8.176 2.781-8.176 6.761v.081c0 4.494 4.525 5.75 7.825 6.647 2.98.815 5.259 1.574 5.259 3.384v.08c0 1.787-1.676 2.977-4.159 2.977-2.303 0-4.607-.75-6.87-2.242-.265-.203-.673-.335-1.11-.335-1.095 0-1.984.858-1.984 1.885 0 .75.415 1.305.822 1.59 2.566 1.77 5.91 2.838 8.963 2.838 5.102 0 8.526-2.838 8.526-7.045v-.09c0-4.519-4.57-5.848-7.595-6.728m13.54-9.624c-1.19 0-2.16.954-2.16 2.128v19.01c0 1.2.97 2.138 2.209 2.138 1.227 0 2.156-.923 2.156-2.138v-19.01c0-1.19-.97-2.128-2.205-2.128m23.899 2.471c-1.742-1.704-4.319-2.56-7.643-2.56-2.722 0-5.056.473-7.566 1.517-.572.229-1.215.889-1.215 1.81 0 1.02.904 1.876 1.98 1.876.253 0 .535-.057.8-.146 1.855-.808 3.703-1.199 5.652-1.199 2.837 0 6.21.961 6.21 5.48v.113c-1.66-.423-3.63-.782-6.422-.782-6.255 0-10.138 2.894-10.138 7.568v.072c0 4.804 4.486 7.316 8.922 7.316 3.662 0 6.092-1.435 7.638-2.96v.684c0 1.151.908 2.016 2.124 2.016 1.2 0 2.116-.907 2.116-2.097v-11.963c0-2.894-.832-5.162-2.458-6.745zm-1.733 10.316v1.746c0 3.09-3.026 5.431-7.039 5.431-2.49 0-5.161-1.207-5.161-3.866v-.08c0-2.537 2.267-4.037 6.08-4.037 2.05 0 4.056.26 6.12.806M3.496 419.23v2.372H.002v-21.098h3.494v8.385c1.13-1.591 2.716-2.862 5.175-2.862 3.613 0 7.107 2.862 7.107 7.918v.065c0 5.056-3.466 7.909-7.107 7.909-2.516 0-4.102-1.271-5.175-2.69zm8.726-5.22v-.065c0-2.945-1.994-4.886-4.363-4.886-2.368 0-4.452 1.965-4.452 4.886v.065c0 2.936 2.084 4.867 4.452 4.867 2.402 0 4.363-1.866 4.363-4.867m5.92 11.368l1.187-2.602c.636.36 1.326.587 2.052.587.982 0 1.589-.424 2.168-1.76l-6.356-15.26h3.726l4.335 11.335 3.96-11.335h3.64l-6.068 15.684c-1.214 3.13-2.576 4.28-5.026 4.28-1.476 0-2.545-.343-3.618-.929"/></svg>